<svg xmlns="http://www.w3.org/2000/svg" width="388" height="1500" viewBox="0 0 388 1500">
  <title>su-logo-upright</title>
  <g>
    <g>
      <path d="M221.464,1380.044V1361.66c19.8,0,32.117-12.321,32.117-32.523,0-17.779-8.484-27.877-23.233-27.877-12.523,0-19.39,6.262-25.046,22.624l-8.281,23.433c-6.062,18.99-18.388,28.485-37.17,28.485-22.63,0-37.981-18.182-37.981-44.442,0-27.88,16.968-45.859,43.231-45.859v18.384c-17.373,0-27.474,10.1-27.474,28.08,0,15.757,8.484,25.453,21.21,25.453,11.92,0,19.4-7.676,25.255-25.05l7.673-21.815c6.264-18.182,18.787-27.678,37.98-27.678,24.241,0,40,17.98,40,46.06C269.743,1361.054,251.767,1380.044,221.464,1380.044Z" fill="#fff"/>
      <path d="M220.05,1270.947c-28.888,0-48.887-17.577-48.887-46.262,0-25.049,13.734-41.212,34.544-43.431v17.573c-12.326,2.425-18.787,11.312-18.787,26.061,0,17.776,12.32,28.685,33.13,28.685,20.6,0,33.131-10.909,33.131-28.685,0-14.749-6.468-23.636-18.185-26.061v-17.573c20.4,2.219,33.941,18.382,33.941,43.431C268.937,1253.37,248.933,1270.947,220.05,1270.947Z" fill="#fff"/>
      <path d="M209.138,1077.609h57.371v17.577H216.817c-20.81,0-30.708,6.664-30.708,23.429,0,17.374,12.326,26.264,31.113,26.264h49.287v17.573H125.1v-17.573h65.449c-11.92-5.054-19.593-16.366-19.593-32.523C170.96,1089.327,184.289,1077.609,209.138,1077.609Z" fill="#fff"/>
      <path d="M220.05,1059.814c-27.271,0-49.09-18.18-49.09-48.482,0-30.1,21.819-48.482,49.09-48.482,27.069,0,48.887,18.382,48.887,48.482C268.937,1041.634,247.119,1059.814,220.05,1059.814Zm0-79.387c-18.787,0-33.333,11.312-33.333,30.9s14.546,31.108,33.333,31.108c18.585,0,33.131-11.515,33.131-31.108S238.635,980.427,220.05,980.427Z" fill="#fff"/>
      <path d="M220.05,950.925c-27.271,0-49.09-18.179-49.09-48.482,0-30.1,21.819-48.481,49.09-48.481,27.069,0,48.887,18.382,48.887,48.481C268.937,932.746,247.119,950.925,220.05,950.925Zm0-79.387c-18.787,0-33.333,11.312-33.333,30.9s14.546,31.109,33.333,31.109c18.585,0,33.131-11.515,33.131-31.109S238.635,871.538,220.05,871.538Z" fill="#fff"/>
      <path d="M125.1,835.366V817.79H266.509v17.576Z" fill="#fff"/>
      <path d="M238.635,799V781.623c9.087,0,16.157-8.484,16.157-22.219,0-10.3-5.048-17.17-13.329-17.17-6.264,0-10.506,2.828-13.334,13.937l-4.851,18.99c-3.836,13.735-12.726,21.008-25.655,21.008-15.756,0-26.663-14.546-26.663-34.748,0-22.218,10.7-35.755,28.077-35.755v17.17c-8.889,0-14.545,7.076-14.545,19.194,0,9.7,4.647,16.765,12.326,16.765,5.859,0,10.1-3.431,12.929-13.532L215,746.07c3.836-13.734,12.929-21.616,25.858-21.616,17.779,0,28.082,13.943,28.082,35.959C268.937,783.24,255.806,799,238.635,799Z" fill="#fff"/>
    </g>
    <g>
      <path d="M125.1,679.31V629.787h8.089l1.184,12.529,2.861,3.453H217.38q21.21,0,30.73-8.534t9.519-27.474q0-18.744-9.618-27.327t-30.631-8.582H138.619l-3.65,3.847-1.776,12.134H125.1V547.117h8.089l1.776,12.134,3.65,3.65h80.536q14.5,0,22.2,2.072a35.027,35.027,0,0,1,13.417,6.807q7.2,6.018,11.3,17.017a77.377,77.377,0,0,1,0,49.671q-4.094,10.952-11.3,16.968a34.7,34.7,0,0,1-13.417,6.857q-7.6,2.022-22.2,2.022H137.238l-2.861,3.453-1.184,11.542Z" fill="#fff"/>
      <path d="M266.509,547.117h-7.3l-.986-10.95-3.256-3.453h-73.1v14.4h-6.314l-7.2-23.479v-7.7H179.4a149.843,149.843,0,0,1-9.421-19.533,38.561,38.561,0,0,1-2.713-13.022q0-13.218,7.892-20.223t22.887-7h56.922l3.256-3.453.986-10.852h7.3v44.2h-7.3l-.986-9.668-3.256-3.453H201.5q-11.344,0-16.08,4.686t-4.735,15.735a37.726,37.726,0,0,0,1.628,10.457,68.186,68.186,0,0,0,4.981,12.134h67.675l3.256-3.452.986-9.668h7.3Z" fill="#fff"/>
      <path d="M168.351,408.117v-7.892h86.616l3.256-3.453.986-10.851h7.3V431.3h-7.3l-.986-10.654-3.256-3.453h-73.1V431.3h-6.314Zm-44.886-.789a11.254,11.254,0,0,1,3.453-8.336,11.383,11.383,0,0,1,8.286-3.4,11.061,11.061,0,0,1,8.189,3.4,11.423,11.423,0,0,1,3.354,8.336,11.305,11.305,0,0,1-3.354,8.238,11.061,11.061,0,0,1-8.189,3.4,11.336,11.336,0,0,1-8.336-3.4A11.22,11.22,0,0,1,123.465,407.328Z" fill="#fff"/>
      <path d="M181.472,368.158v12.726h-6.314l-5.82-13.318L150.5,358.885v-7.5H172V320.608h9.471v30.779h53.272q13.121,0,17.609-3.65t4.489-13.12a60.405,60.405,0,0,0-.395-6.758,61.408,61.408,0,0,0-1.282-7.251h7.5a102.259,102.259,0,0,1,3.305,13.614,77.54,77.54,0,0,1,1.134,12.923q0,11.642-4.39,16.327t-16.03,4.686Z" fill="#fff"/>
      <path d="M245.1,231.816H256.25a75.009,75.009,0,0,1,8.977,18.667,64.274,64.274,0,0,1,3.058,19.457q0,20.051-13.762,32.544t-35.859,12.5q-22.69,0-37.044-13.087t-14.354-33.629q0-16.8,10.7-26.62t29.151-9.827q2.467,0,3.749.05a19.686,19.686,0,0,1,2.466.246v65.505h2.269q19.041,0,30.138-9.191t11.1-24.8a43.164,43.164,0,0,0-2.861-14.967A83.35,83.35,0,0,0,245.1,231.816Zm-40.25,18.152h-3.146q-12.19,0-18.678,5.377t-6.489,15.636q0,10.062,8.013,17.412t20.3,8.237Z" fill="#fff"/>
      <path d="M131.357,149.936v15.488h-6.314l-7.2-24.663v-7.6H254.967l3.256-3.453.986-9.668h7.3v29.892H256.052a60.582,60.582,0,0,1,9.274,15.389,42.341,42.341,0,0,1,2.959,15.686q0,16.968-13.268,27.968t-33.986,11q-24.07,0-39.016-14.452T167.069,167.89a66.418,66.418,0,0,1,.592-8.582q.591-4.539,1.677-9.372Zm117.2,0H179.2q-1.578,5.524-2.417,9.914a42.287,42.287,0,0,0-.838,7.843q0,15.487,11.443,25.008t30.187,9.52q17.461,0,27.721-8.237t10.26-22.049a35.776,35.776,0,0,0-1.726-10.8A49.659,49.659,0,0,0,248.555,149.936Z" fill="#fff"/>
    </g>
  </g>
</svg>
