<svg xmlns="http://www.w3.org/2000/svg" width="272" height="64" viewBox="0 0 272 64">
  <title>su-wordmark-blue</title>
  <path d="M11.39,37.372H15c0,3.889,2.407,6.389,6.39,6.389,3.519,0,5.557-1.667,5.557-4.63,0-2.5-1.2-3.8-4.446-4.907l-4.63-1.667c-3.8-1.2-5.65-3.611-5.65-7.314,0-4.445,3.612-7.5,8.8-7.5,5.557,0,9.076,3.333,9.076,8.518H26.486c0-3.426-2.038-5.463-5.557-5.463-3.149,0-5.094,1.667-5.094,4.26,0,2.314,1.482,3.8,4.909,5L25.1,31.539a7.289,7.289,0,0,1,5.465,7.5c0,4.814-3.52,7.87-9.077,7.87C15.187,46.909,11.39,43.39,11.39,37.372ZM32.971,37.1c0-5.74,3.52-9.629,9.169-9.629,4.909,0,8.15,2.685,8.613,6.852H47.234c-.463-2.408-2.223-3.7-5.186-3.7-3.52,0-5.65,2.407-5.65,6.574,0,4.074,2.13,6.574,5.65,6.574,2.871,0,4.63-1.3,5.186-3.611h3.519c-.463,4.074-3.612,6.666-8.613,6.666C36.4,46.817,32.971,42.836,32.971,37.1ZM71.22,34.961v11.3H67.7V36.443c0-4.074-1.3-6.111-4.631-6.111-3.426,0-5.186,2.407-5.186,6.111v9.722H54.365V18.388h3.519V31.35a6.606,6.606,0,0,1,6.39-3.888C68.905,27.369,71.22,30.054,71.22,34.961Zm3.517,2.13c0-5.37,3.612-9.722,9.631-9.722C90.3,27.369,94,31.721,94,37.091s-3.612,9.629-9.632,9.629C78.349,46.813,74.737,42.461,74.737,37.091Zm15.651,0c0-3.7-2.222-6.574-6.112-6.574s-6.113,2.87-6.113,6.574,2.316,6.574,6.113,6.574C88.166,43.665,90.388,40.794,90.388,37.091Zm5.837,0c0-5.37,3.612-9.722,9.631-9.722,5.928,0,9.633,4.352,9.633,9.722s-3.612,9.629-9.633,9.629C99.837,46.813,96.225,42.461,96.225,37.091Zm15.744,0c0-3.7-2.222-6.574-6.113-6.574s-6.112,2.87-6.112,6.574,2.315,6.574,6.112,6.574S111.969,40.794,111.969,37.091Zm7.13-18.7h3.519V46.35H119.1ZM126.323,40.8h3.426c0,1.759,1.667,3.148,4.353,3.148,2.038,0,3.427-1.019,3.427-2.593,0-1.2-.556-2.037-2.779-2.592l-3.8-.926c-2.685-.741-4.167-2.5-4.167-5.092,0-3.148,2.87-5.278,6.853-5.278,4.353,0,7.038,2.13,7.038,5.555h-3.333c0-1.759-1.389-2.87-3.8-2.87-1.945,0-3.333.926-3.333,2.407,0,1.2.648,2.037,2.685,2.593l3.8,1.018c2.686.741,4.261,2.593,4.261,5.093,0,3.518-2.779,5.555-7.131,5.555C129.379,46.817,126.323,44.225,126.323,40.8Zm23.615-22.411h9.817v1.574l-2.5.278-.648.555V36.628q0,4.167,1.667,6.111c1.111,1.3,2.964,1.852,5.464,1.852s4.261-.648,5.371-1.945,1.668-3.24,1.668-6.018V20.98l-.741-.74-2.408-.371V18.388h8.428v1.574l-2.408.37-.742.741V37a17.528,17.528,0,0,1-.37,4.352,6.752,6.752,0,0,1-1.389,2.685,8.768,8.768,0,0,1-3.334,2.222,14.861,14.861,0,0,1-9.817,0,7.528,7.528,0,0,1-3.334-2.222,6.765,6.765,0,0,1-1.389-2.685A18,18,0,0,1,152.9,37V20.7l-.648-.556-2.315-.278Zm26.116,27.874V44.781l2.13-.185.649-.648V29.6h-2.872v-1.2L180.592,27h1.482v2.222a23.228,23.228,0,0,1,3.89-1.852,7.7,7.7,0,0,1,2.593-.555,5.087,5.087,0,0,1,3.982,1.574,6.647,6.647,0,0,1,1.389,4.537v11.3l.834.463,2.13.186v1.481h-8.706V44.874l1.945-.186.648-.648V33.485c0-1.481-.277-2.592-.925-3.148a4.278,4.278,0,0,0-3.15-.926,8.269,8.269,0,0,0-2.037.278,10.361,10.361,0,0,0-2.408,1.019V44.04l.648.648,1.945.186v1.481h-8.8Zm27.507-19.351h1.573V44.04l.649.648,2.13.186v1.481H198.93V44.874l2.13-.186.648-.648V29.6H198.93v-1.2Zm.185-8.888a2.22,2.22,0,0,1,2.315,2.314,1.906,1.906,0,0,1-.648,1.574,2.663,2.663,0,0,1-1.667.649,2.231,2.231,0,0,1-1.667-.649,2.163,2.163,0,0,1-.649-1.574,2.221,2.221,0,0,1,2.316-2.314Zm7.685,11.482h-2.5V28.3l2.593-1.111,1.759-3.7h1.482v4.259h6.112V29.6h-6.112V40.06a6.192,6.192,0,0,0,.741,3.519,3.36,3.36,0,0,0,2.593.925,6.144,6.144,0,0,0,1.3-.092,7.425,7.425,0,0,0,1.39-.278v1.482c-.926.277-1.852.462-2.686.648a12.678,12.678,0,0,1-2.593.185,4.87,4.87,0,0,1-3.241-.833c-.649-.556-.927-1.667-.927-3.149V29.505Zm27.045,12.588v2.223a15.108,15.108,0,0,1-3.705,1.759,14.264,14.264,0,0,1-3.89.648,8.177,8.177,0,0,1-6.39-2.685,10.147,10.147,0,0,1-2.5-7.13,10.253,10.253,0,0,1,2.594-7.314,8.882,8.882,0,0,1,6.668-2.87,6.9,6.9,0,0,1,5.279,2.129,8.137,8.137,0,0,1,1.945,5.741v.741a.688.688,0,0,1-.093.462H225.417v.463a8.9,8.9,0,0,0,1.852,5.926,6.029,6.029,0,0,0,4.909,2.222,8.8,8.8,0,0,0,2.964-.555A19.667,19.667,0,0,0,238.476,42.093Zm-3.612-7.962v-.648a6.08,6.08,0,0,0-1.019-3.7,3.913,3.913,0,0,0-3.057-1.3,4.587,4.587,0,0,0-3.426,1.574,7.071,7.071,0,0,0-1.667,3.981h9.169ZM254.591,19.6h-3.057V18.3l4.909-1.389h1.482V44.038l.741.648,1.944.185v1.482h-5.927V44.316a10.82,10.82,0,0,1-3.056,1.852,8.9,8.9,0,0,1-3.056.555,6.927,6.927,0,0,1-5.557-2.592,10.032,10.032,0,0,1-2.13-6.759,10.405,10.405,0,0,1,2.871-7.685,11.266,11.266,0,0,1,9.076-2.87,16.232,16.232,0,0,1,1.852.37V19.6Zm0,23.147v-13.7c-.742-.186-1.39-.371-1.945-.463a10.284,10.284,0,0,0-1.575-.186,6.029,6.029,0,0,0-4.908,2.223,8.739,8.739,0,0,0-1.853,5.925A8.2,8.2,0,0,0,245.977,42a5.453,5.453,0,0,0,4.353,2.037,5.746,5.746,0,0,0,2.131-.37A5.98,5.98,0,0,0,254.591,42.742Z" fill="#0a1f3f"/>
</svg>
